<svg width="24" height="24" viewBox="0 0 24 24" fill="none" xmlns="http://www.w3.org/2000/svg">
<g clip-path="url(#clip0_10_2)">
<path d="M12.3662 0.871601C10.0043 1.46926 8.58389 3.98058 9.98437 6.08504C11.038 7.66815 12.0922 8.95224 10.3945 9.79098C9.29986 10.3319 8.04952 9.01969 8.23242 7.48098C8.45798 5.58324 7.35562 3.7344 6.07031 3.34716C8.23767 8.3356 4.03312 11.6439 4.92047 6.96094C3.50081 7.7154 3.38372 9.72737 4.39312 12.7134C2.50069 11.9072 1.81172 9.58374 2.59866 7.06201C0.917437 8.39091 0.100219 13.1981 1.91306 15.6622C6.39492 21.7538 11.6323 23.2661 12.5625 23.2661C13.5536 23.2661 18.0625 21.6856 21.4497 17.8696C23.4082 15.663 23.8369 9.95241 21.8819 6.44813C22.1622 7.63571 21.5952 10.0475 20.2954 10.8559C20.5297 8.14773 20.112 4.24913 18.5756 2.81541C20.1047 10.9155 14.2157 9.94988 16.308 7.48088C17.6913 5.84846 16.3001 2.67619 15.4877 2.2133C15.9984 4.18768 14.8202 5.47937 12.9227 5.09312C11.6453 4.8331 10.8254 2.98576 12.3662 0.87146L12.3662 0.871601ZM6.96825 10.7843H7.84425V18.5274L12.6592 21.1436L17.4741 18.5274V10.7857H18.3502V19.0488L18.1201 19.1733L12.8672 22.0254L12.6592 22.1397L12.4497 22.0254L7.19672 19.1733L6.96825 19.0488V10.7842V10.7843ZM8.72747 10.7944L12.1743 12.8819V19.834L8.72747 17.8916V10.7944V10.7944ZM16.5893 10.7944V17.8916L13.0503 19.8868V12.9389L16.5893 10.7944V10.7944Z" fill="#F24E1E"/>
</g>
<defs>
<clipPath id="clip0_10_2">
<rect width="24" height="24" fill="white"/>
</clipPath>
</defs>
</svg>
